<?xml version="1.0" encoding="UTF-8"?>
<svg width="175px" height="39px" viewBox="0 0 175 39" version="1.1" xmlns="http://www.w3.org/2000/svg" xmlns:xlink="http://www.w3.org/1999/xlink">
    <!-- Generator: Sketch 59.1 (86144) - https://sketch.com -->
    <title>Group 17 Copy</title>
    <desc>Created with Sketch.</desc>
    <g id="Home-Page" stroke="none" stroke-width="1" fill="none" fill-rule="evenodd">
        <g transform="translate(-109.000000, -62.000000)" id="Group-2">
            <g transform="translate(0.000000, 40.000000)">
                <g id="Group-17-Copy" transform="translate(109.000000, 22.000000)">
                    <polygon id="Fill-1" fill="#1C75BB" points="0 35.9428571 6.36363636 35.9428571 6.36363636 0 0 0"></polygon>
                    <g id="Group-16" transform="translate(12.727273, 9.514286)">
                        <path d="M63.2738485,0.658018571 L69.2137727,0.658018571 L69.2137727,4.62177571 C70.8831667,2.22417571 73.2886212,0.119404286 77.3146818,0.119404286 C83.1565,0.119404286 86.5440758,4.03453286 86.5440758,10.0042186 L86.5440758,26.49459 L80.6036212,26.49459 L80.6036212,11.8145757 C80.6036212,7.80271857 78.5905909,5.50237571 75.0561212,5.50237571 C71.6192273,5.50237571 69.2137727,7.89997571 69.2137727,11.91289 L69.2137727,26.49459 L63.2738485,26.49459 L63.2738485,0.658018571 Z" id="Fill-2" fill="#1C75BB"></path>
                        <path d="M92.6823864,17.0994971 L92.6823864,0.658282857 L98.6223106,0.658282857 L98.6223106,15.3377686 C98.6223106,19.3506829 100.635341,21.60134 104.169811,21.60134 C107.606705,21.60134 110.012159,19.2523686 110.012159,15.2399829 L110.012159,0.658282857 L116.001402,0.658282857 L116.001402,26.4943257 L110.012159,26.4943257 L110.012159,22.4824686 C108.342765,24.9292257 105.937311,27.03294 101.91178,27.03294 C96.0699621,27.03294 92.6823864,23.11834 92.6823864,17.0994971" id="Fill-4" fill="#1C75BB"></path>
                        <path d="M122.680197,0.658018571 L128.620121,0.658018571 L128.620121,4.57261857 C130.289515,2.27333286 132.547545,0.119404286 136.523758,0.119404286 C140.2555,0.119404286 142.906485,1.93029 144.2805,4.67093286 C146.342848,1.93029 149.091939,0.119404286 153.019364,0.119404286 C158.66497,0.119404286 162.101333,3.69201857 162.101333,10.0042186 L162.101333,26.49459 L156.161409,26.49459 L156.161409,11.8145757 C156.161409,7.70440429 154.246485,5.50237571 150.908227,5.50237571 C147.668076,5.50237571 145.361258,7.75356143 145.361258,11.91289 L145.361258,26.49459 L139.420273,26.49459 L139.420273,11.7659471 C139.420273,7.75356143 137.456561,5.50237571 134.167621,5.50237571 C130.878682,5.50237571 128.620121,7.94913286 128.620121,11.91289 L128.620121,26.49459 L122.680197,26.49459 L122.680197,0.658018571 Z" id="Fill-6" fill="#1C75BB"></path>
                        <path d="M12.7065379,25.6356086 C5.78926515,25.6356086 0.181310606,20.0464943 0.181310606,13.15128 C0.181310606,6.25606571 5.78926515,0.666951429 12.7065379,0.666951429" id="Stroke-8" stroke="#1C75BB" stroke-width="6"></path>
                        <path d="M44.74225,0.667057143 C51.660053,0.667057143 57.2674773,6.25617143 57.2674773,13.1513857 C57.2674773,20.0466 51.660053,25.6357143 44.74225,25.6357143" id="Stroke-10" stroke="#F6931D" stroke-width="6"></path>
                        <path d="M13.2611818,0.667057143 C25.2370152,1.37375714 28.7242879,13.1513857 28.7242879,13.1513857 C28.7242879,13.1513857 32.3711818,25.6357143 44.1879242,25.6357143" id="Stroke-12" stroke="#1C75BB" stroke-width="6"></path>
                        <path d="M44.1881364,0.667057143 C31.8262424,0.667057143 28.7245,13.1513857 28.7245,13.1513857 C28.7245,13.1513857 25.0781364,25.6357143 13.2613939,25.6357143" id="Stroke-14" stroke="#27A9E0" stroke-width="6"></path>
                    </g>
                </g>
            </g>
        </g>
    </g>
</svg>